<svg width="181" height="219" viewBox="0 0 181 219" fill="none" xmlns="http://www.w3.org/2000/svg">
<path d="M174.179 175.935L100.419 218.525L17.3594 170.454L91.1194 127.875L174.179 175.935Z" fill="#475F92"/>
<path opacity="0.5" d="M174.179 175.935L100.419 218.525L17.3594 170.454L91.1194 127.875L174.179 175.935Z" fill="black"/>
<path d="M91.1194 70.1445V127.875L17.3594 170.455V112.735L91.1194 70.1445Z" fill="#475F92"/>
<path opacity="0.23" d="M91.1194 70.1445V127.875L17.3594 170.455V112.735L91.1194 70.1445Z" fill="black"/>
<path d="M100.419 160.794V218.524L17.3594 170.454V112.734L100.419 160.794Z" fill="#475F92"/>
<path opacity="0.38" d="M100.419 160.794V218.524L17.3594 170.454V112.734L100.419 160.794Z" fill="black"/>
<path d="M174.179 118.205V175.935L91.1191 127.875V70.1445L174.179 118.205Z" fill="#475F92"/>
<path opacity="0.4" d="M174.179 118.205V175.935L91.1191 127.875V70.1445L174.179 118.205Z" fill="black"/>
<path d="M174.18 175.935V118.205L100.42 160.795V218.525L174.18 175.935Z" fill="#475F92"/>
<path opacity="0.23" d="M174.18 175.935V118.205L100.42 160.795V218.525L174.18 175.935Z" fill="black"/>
<path d="M91.1191 70.1446L91.2191 38.1846L174.079 86.3046L174.179 118.205L91.1191 70.1446Z" fill="#475F92"/>
<path opacity="0.2" d="M91.1191 70.1446L91.2191 38.1846L174.079 86.3046L174.179 118.205L91.1191 70.1446Z" fill="black"/>
<path d="M100.42 160.795L107.34 132.835L180.43 90.6348L174.18 118.205L100.42 160.795Z" fill="#475F92"/>
<path opacity="0.3" d="M100.42 160.795L107.34 132.835L180.43 90.6348L174.18 118.205L100.42 160.795Z" fill="black"/>
<path d="M17.3605 112.735L8.56055 83.7348L82.3205 41.1548L91.1205 70.1448L17.3605 112.735Z" fill="#475F92"/>
<path opacity="0.1" d="M17.3605 112.735L8.56055 83.7348L82.3205 41.1548L91.1205 70.1448L17.3605 112.735Z" fill="black"/>
<path d="M17.36 112.735L0 88.7646L83.07 136.825L100.42 160.795L17.36 112.735Z" fill="#475F92"/>
<path opacity="0.45" d="M17.36 112.735L0 88.7646L83.07 136.825L100.42 160.795L17.36 112.735Z" fill="black"/>
<g opacity="0.7">
<path d="M122.14 201.355C122.019 201.355 121.904 201.308 121.818 201.223C121.732 201.139 121.682 201.025 121.68 200.905V190.745C121.682 190.623 121.732 190.508 121.817 190.422C121.903 190.336 122.018 190.287 122.14 190.285C122.26 190.287 122.374 190.337 122.459 190.423C122.543 190.509 122.59 190.624 122.59 190.745V200.905C122.59 201.024 122.542 201.138 122.458 201.223C122.373 201.307 122.259 201.355 122.14 201.355Z" fill="white"/>
<path d="M120.811 194.265C120.751 194.274 120.69 194.274 120.631 194.265C120.521 194.214 120.436 194.124 120.391 194.012C120.346 193.901 120.346 193.776 120.391 193.665L122.011 189.935L123.811 192.015C123.875 192.108 123.903 192.221 123.889 192.334C123.875 192.446 123.819 192.549 123.734 192.623C123.649 192.698 123.539 192.738 123.426 192.736C123.312 192.735 123.204 192.691 123.121 192.615L122.271 191.615L121.271 194.015C121.227 194.097 121.16 194.165 121.079 194.21C120.997 194.254 120.903 194.273 120.811 194.265Z" fill="white"/>
<path d="M126.331 198.965C126.211 198.962 126.096 198.913 126.012 198.827C125.928 198.741 125.881 198.625 125.881 198.505V188.355C125.881 188.235 125.928 188.121 126.013 188.037C126.097 187.952 126.212 187.905 126.331 187.905C126.45 187.905 126.565 187.952 126.649 188.037C126.733 188.121 126.781 188.235 126.781 188.355V198.495C126.782 198.555 126.772 198.615 126.75 198.672C126.728 198.728 126.695 198.779 126.653 198.823C126.611 198.867 126.561 198.902 126.506 198.926C126.451 198.95 126.391 198.963 126.331 198.965Z" fill="white"/>
<path d="M125 191.875C124.94 191.884 124.879 191.884 124.82 191.875C124.765 191.851 124.715 191.816 124.674 191.773C124.632 191.73 124.6 191.679 124.579 191.623C124.557 191.567 124.547 191.507 124.549 191.448C124.551 191.388 124.565 191.329 124.59 191.275L126.2 187.495L128 189.565C128.083 189.65 128.129 189.765 128.129 189.885C128.129 190.004 128.083 190.119 128 190.205C127.958 190.247 127.908 190.281 127.853 190.303C127.798 190.326 127.739 190.338 127.68 190.338C127.62 190.338 127.561 190.326 127.506 190.303C127.451 190.281 127.401 190.247 127.36 190.205L126.51 189.205L125.51 191.605C125.468 191.701 125.395 191.78 125.302 191.83C125.209 191.879 125.103 191.895 125 191.875Z" fill="white"/>
</g>
<g opacity="0.7">
<path d="M110.048 208.245C109.878 208.247 109.709 208.206 109.559 208.125C109.378 208.009 109.231 207.847 109.135 207.655C109.038 207.463 108.994 207.249 109.009 207.035V205.785C109.011 205.664 109.061 205.55 109.147 205.466C109.233 205.382 109.348 205.335 109.469 205.335C109.588 205.335 109.702 205.382 109.787 205.466C109.871 205.551 109.919 205.665 109.919 205.785V207.035C109.919 207.215 109.919 207.315 110.009 207.335C110.099 207.355 110.148 207.335 110.298 207.255C110.58 206.995 110.802 206.677 110.948 206.323C111.095 205.969 111.163 205.588 111.149 205.205V200.005C111.149 199.885 111.196 199.771 111.28 199.686C111.365 199.602 111.479 199.555 111.598 199.555C111.718 199.555 111.832 199.602 111.917 199.686C112.001 199.771 112.048 199.885 112.048 200.005V205.205C112.071 205.745 111.966 206.282 111.742 206.774C111.517 207.265 111.181 207.697 110.759 208.035C110.545 208.167 110.3 208.239 110.048 208.245Z" fill="white"/>
<path d="M105.279 204.055V203.275C105.398 201.272 105.984 199.324 106.989 197.588C107.994 195.852 109.392 194.375 111.069 193.275C112.709 192.335 114.269 192.195 115.469 192.895C116.109 193.333 116.62 193.936 116.947 194.64C117.274 195.344 117.406 196.122 117.329 196.895V197.155L105.279 204.055ZM113.789 193.315C112.989 193.351 112.211 193.592 111.529 194.015C110.092 194.961 108.874 196.205 107.96 197.663C107.045 199.121 106.455 200.758 106.229 202.465L116.399 196.585C116.443 196.005 116.336 195.425 116.089 194.899C115.842 194.374 115.463 193.921 114.989 193.585C114.62 193.391 114.206 193.298 113.789 193.315Z" fill="white"/>
</g>
<path opacity="0.7" d="M0 88.7646L83.07 136.825L100.42 160.795L82.15 137.675L0 88.7646Z" fill="white"/>
<path opacity="0.7" d="M174.18 118.205L100.42 160.795V218.525L101.8 161.955L174.18 118.205Z" fill="white"/>
<path d="M65.9396 95.1145C73.5496 94.0145 80.4996 89.1145 84.9396 82.9545C87.0102 80.0764 88.5354 76.8429 89.4396 73.4145C90.3999 70.2086 90.5578 66.8158 89.8996 63.5345C88.5296 58.0445 83.4496 54.7945 78.0796 54.1145C75.3547 53.756 72.5839 54.0263 69.9796 54.9045C67.2793 55.8312 64.9365 57.5796 63.2796 59.9045C62.2408 61.1432 61.5872 62.6588 61.3996 64.2645C61.3837 64.8934 61.6054 65.5052 62.0206 65.9779C62.4358 66.4506 63.0139 66.7493 63.6396 66.8145C65.2498 66.9502 66.859 66.5417 68.2096 65.6545C69.8565 64.731 71.3071 63.4945 72.4796 62.0145C74.9949 58.9103 76.8771 55.343 78.0196 51.5145C78.8213 48.2294 78.8213 44.7997 78.0196 41.5145C77.4106 38.078 75.8399 34.8846 73.4896 32.3045C70.7953 29.8543 67.3762 28.3483 63.7496 28.0145C60.1403 27.5187 56.4653 27.8608 53.0096 29.0145C51.4917 29.4747 50.0856 30.2442 48.8796 31.2745C48.0196 32.0745 47.0396 33.3945 47.3896 34.6945C47.7396 35.9945 49.6396 36.5745 50.9296 36.4045C52.8388 36.0468 54.5877 35.0989 55.9296 33.6945C57.4252 32.2222 58.6955 30.5374 59.6996 28.6945C60.4456 27.3701 60.835 25.8746 60.8296 24.3545C60.6996 18.0145 53.6896 13.9145 48.1996 12.7545C46.7176 12.4449 45.1996 12.344 43.6896 12.4545C43.1796 12.4545 43.4896 13.2945 43.8996 13.2645C46.8539 13.1303 49.7899 13.7935 52.3996 15.1845C54.9744 16.3679 57.1369 18.2936 58.6096 20.7145C59.266 21.9081 59.5899 23.2559 59.5477 24.6173C59.5055 25.9788 59.0987 27.304 58.3696 28.4545C57.3905 30.16 56.1713 31.7159 54.7496 33.0745C53.5596 34.1545 51.7496 35.4045 50.0796 35.2845C49.8039 35.2839 49.5339 35.2057 49.3005 35.059C49.0671 34.9122 48.8797 34.7028 48.7596 34.4545C48.7092 34.1262 48.7363 33.7906 48.8388 33.4746C48.9412 33.1585 49.1162 32.8709 49.3496 32.6345C50.2327 31.6835 51.3248 30.9509 52.5396 30.4945C55.5397 29.2474 58.7882 28.7134 62.0296 28.9345C65.3701 28.995 68.6187 30.0385 71.3696 31.9345C73.7661 33.9243 75.468 36.6243 76.2296 39.6445C77.1944 42.7127 77.4944 45.9513 77.1096 49.1445C76.5158 52.3577 75.2812 55.4185 73.4796 58.1445C71.6296 61.2045 69.3096 64.1445 65.8296 65.3445C64.9696 65.6545 63.1696 66.1045 62.8296 64.8545C62.4896 63.6045 63.4696 62.0645 64.0996 61.0945C65.4927 58.902 67.5238 57.1885 69.9196 56.1845C72.2315 55.2579 74.7272 54.8813 77.2096 55.0845C81.9196 55.4345 86.6996 57.8945 88.3396 62.5745C89.1623 65.3715 89.2518 68.333 88.5996 71.1745C88.0113 74.2892 86.8917 77.2795 85.2896 80.0145C81.8436 85.8258 76.6247 90.3788 70.3996 93.0045C68.9196 93.6445 67.3996 94.1845 65.8496 94.6845C65.6896 94.7445 65.7596 95.1445 65.9396 95.1145Z" fill="#E0E0E0"/>
<path d="M34.1502 8.29448C30.1502 8.00448 24.6402 11.1545 26.6002 13.4545C28.5602 15.7545 33.7602 12.0345 33.7602 12.0345C33.7602 12.0345 33.2702 16.6845 34.9702 17.2145C36.6702 17.7445 38.9703 13.3045 37.2703 10.4645C38.0901 10.7877 38.9783 10.8985 39.8524 10.7866C40.7266 10.6747 41.5582 10.3438 42.2703 9.82448C44.6903 8.04448 42.1302 6.36448 38.7202 6.66448C38.7202 6.66448 41.1603 -1.33552 36.2303 0.194478C33.7603 0.944478 32.8902 3.83448 34.1502 8.29448Z" fill="#475F92"/>
<path opacity="0.65" d="M34.1502 8.29448C30.1502 8.00448 24.6402 11.1545 26.6002 13.4545C28.5602 15.7545 33.7602 12.0345 33.7602 12.0345C33.7602 12.0345 33.2702 16.6845 34.9702 17.2145C36.6702 17.7445 38.9703 13.3045 37.2703 10.4645C38.0901 10.7877 38.9783 10.8985 39.8524 10.7866C40.7266 10.6747 41.5582 10.3438 42.2703 9.82448C44.6903 8.04448 42.1302 6.36448 38.7202 6.66448C38.7202 6.66448 41.1603 -1.33552 36.2303 0.194478C33.7603 0.944478 32.8902 3.83448 34.1502 8.29448Z" fill="white"/>
<path d="M37.8707 9.99469C37.6493 9.77798 37.4156 9.5743 37.1707 9.38469C36.8207 9.11469 36.4507 8.8547 36.1007 8.5947C35.7599 8.34692 35.4024 8.12303 35.0307 7.92468C34.8167 7.80596 34.5964 7.69914 34.3707 7.60469C34.059 7.45835 33.7124 7.40289 33.3707 7.44469C33.2811 7.44722 33.1939 7.47376 33.1181 7.52155C33.0423 7.56933 32.9807 7.63662 32.9399 7.71634C32.899 7.79606 32.8803 7.8853 32.8857 7.97473C32.8911 8.06416 32.9204 8.15048 32.9707 8.22469C33.2456 8.52249 33.5888 8.749 33.9707 8.88469L34.5107 9.17468C34.8807 9.39468 35.2107 9.64469 35.5107 9.89469C35.8107 10.1447 36.2107 10.3847 36.5107 10.6347C37.0265 11.053 37.6031 11.3903 38.2207 11.6347C38.2483 11.6496 38.2792 11.6574 38.3107 11.6574C38.3421 11.6574 38.373 11.6496 38.4007 11.6347C38.9107 11.2347 38.1607 10.2847 37.8707 9.99469Z" fill="#455A64"/>
</svg>
