<?xml version="1.0" standalone="no"?>
<!DOCTYPE svg PUBLIC "-//W3C//DTD SVG 20010904//EN"
 "http://www.w3.org/TR/2001/REC-SVG-20010904/DTD/svg10.dtd">
<svg version="1.0" xmlns="http://www.w3.org/2000/svg"
 width="2048.000000pt" height="1940.000000pt" viewBox="0 0 2048.000000 1940.000000"
 preserveAspectRatio="xMidYMid meet">

<g transform="translate(0.000000,1940.000000) scale(0.100000,-0.100000)"
fill="#000000" stroke="none">
<path d="M10015 17850 c-61 -17 -104 -19 -332 -19 -260 0 -373 -6 -404 -22 -9
-4 -58 -13 -110 -19 -52 -6 -119 -20 -149 -30 -67 -22 -176 -49 -250 -62 -30
-5 -89 -18 -130 -28 -41 -11 -100 -22 -130 -26 -30 -3 -69 -12 -87 -19 -17 -7
-58 -17 -90 -20 -32 -4 -74 -14 -93 -22 -19 -8 -55 -18 -80 -24 -25 -5 -74
-18 -110 -28 -62 -18 -236 -58 -345 -79 -96 -20 -200 -49 -232 -65 -18 -9 -38
-17 -45 -17 -7 0 -35 -11 -63 -25 -27 -13 -57 -25 -65 -25 -9 0 -26 -7 -39
-17 -13 -9 -44 -20 -68 -24 -24 -5 -56 -18 -70 -29 -14 -11 -36 -20 -48 -20
-12 0 -28 -7 -35 -15 -7 -8 -31 -20 -53 -26 -23 -6 -52 -19 -65 -30 -14 -10
-35 -19 -47 -19 -12 0 -33 -8 -46 -19 -13 -10 -34 -21 -45 -25 -12 -4 -29 -15
-39 -26 -10 -11 -23 -20 -30 -20 -6 0 -26 -11 -45 -25 -19 -14 -41 -25 -51
-25 -9 0 -28 -9 -42 -20 -14 -11 -31 -20 -39 -20 -8 0 -32 -9 -53 -20 -22 -12
-60 -25 -84 -31 -24 -5 -55 -19 -69 -29 -13 -11 -33 -20 -42 -20 -10 0 -23 -6
-29 -13 -9 -12 -68 -43 -161 -86 -14 -6 -43 -22 -65 -36 -22 -13 -51 -30 -65
-37 -14 -7 -38 -23 -53 -35 -16 -13 -33 -23 -39 -23 -9 0 -42 -23 -88 -62 -9
-7 -36 -26 -60 -42 -25 -16 -56 -37 -70 -47 -14 -11 -38 -26 -55 -34 -16 -8
-48 -26 -70 -40 -22 -13 -57 -32 -77 -41 -21 -10 -38 -20 -38 -24 0 -4 -26
-24 -57 -46 -32 -21 -67 -47 -78 -56 -11 -10 -37 -33 -57 -52 -21 -18 -58 -49
-84 -67 -25 -19 -83 -64 -129 -101 -46 -38 -88 -68 -94 -68 -16 0 -119 -89
-243 -211 -128 -126 -194 -187 -263 -239 -25 -19 -48 -43 -51 -52 -8 -27 -98
-135 -155 -186 -157 -142 -357 -351 -494 -517 -49 -61 -99 -119 -110 -130 -41
-40 -103 -121 -119 -155 -52 -110 -145 -238 -276 -380 -97 -105 -140 -159
-140 -176 0 -7 -6 -17 -13 -21 -13 -8 -36 -40 -72 -99 -11 -18 -37 -57 -58
-87 -20 -30 -37 -59 -37 -64 0 -5 -9 -18 -19 -27 -11 -10 -23 -31 -26 -46 -3
-16 -13 -34 -20 -40 -8 -6 -19 -28 -26 -48 -7 -20 -20 -48 -30 -61 -11 -13
-19 -34 -19 -46 0 -12 -9 -30 -20 -40 -11 -10 -20 -25 -20 -34 0 -13 -17 -43
-72 -123 -10 -15 -18 -32 -18 -37 0 -5 -10 -22 -23 -38 -12 -15 -28 -39 -35
-53 -7 -14 -28 -50 -47 -80 -19 -30 -34 -62 -35 -71 0 -9 -11 -37 -25 -63 -14
-26 -25 -55 -25 -65 0 -10 -9 -29 -19 -43 -11 -13 -23 -42 -27 -64 -4 -21 -15
-51 -25 -66 -11 -14 -19 -35 -19 -46 0 -10 -8 -30 -18 -43 -11 -13 -22 -37
-26 -54 -4 -16 -16 -39 -26 -50 -9 -11 -21 -41 -24 -66 -4 -26 -16 -64 -26
-85 -11 -21 -20 -50 -20 -65 0 -14 -8 -37 -19 -50 -10 -13 -22 -43 -26 -66 -3
-23 -15 -53 -26 -67 -10 -13 -19 -36 -19 -51 0 -14 -11 -47 -25 -73 -14 -26
-25 -55 -25 -65 0 -11 -9 -30 -20 -44 -11 -14 -20 -37 -20 -52 0 -14 -8 -39
-18 -56 -26 -44 -70 -172 -78 -230 -4 -27 -15 -67 -25 -90 -10 -22 -19 -54
-19 -70 0 -17 -9 -46 -19 -66 -11 -20 -23 -54 -27 -75 -4 -22 -14 -55 -24 -74
-11 -23 -19 -72 -23 -145 -4 -61 -13 -142 -21 -180 -8 -39 -17 -106 -21 -150
-4 -44 -15 -105 -25 -135 -10 -30 -23 -122 -30 -204 -6 -82 -15 -157 -19 -165
-5 -9 -11 -95 -15 -192 -9 -224 -8 -1601 1 -1626 3 -10 12 -25 18 -33 8 -9 15
-61 17 -130 4 -76 11 -129 22 -155 10 -22 22 -76 27 -120 5 -44 16 -100 23
-125 8 -25 19 -85 26 -135 6 -49 17 -112 25 -140 7 -27 16 -86 20 -130 3 -44
12 -105 20 -135 7 -30 18 -88 24 -128 7 -41 18 -86 25 -100 7 -15 16 -44 20
-66 4 -21 16 -57 26 -80 30 -67 57 -138 74 -188 9 -27 23 -69 32 -95 9 -27 24
-64 34 -83 9 -19 21 -48 24 -64 4 -16 16 -41 27 -54 10 -14 19 -37 19 -52 0
-15 9 -35 20 -45 11 -10 20 -29 20 -43 0 -13 11 -45 24 -71 35 -67 76 -155 76
-163 0 -3 20 -37 45 -74 25 -36 45 -73 45 -80 0 -7 6 -17 13 -21 7 -4 28 -35
47 -68 18 -33 41 -69 50 -80 10 -11 21 -31 25 -45 4 -14 15 -34 25 -45 10 -11
21 -31 25 -45 4 -14 11 -27 14 -30 4 -3 14 -15 23 -28 8 -12 44 -53 79 -90 69
-71 168 -198 244 -308 11 -16 26 -33 33 -38 8 -4 40 -30 71 -57 78 -68 105
-91 133 -112 12 -9 48 -37 78 -60 87 -68 150 -109 225 -148 22 -11 66 -36 99
-55 32 -19 70 -37 85 -41 14 -3 37 -14 50 -25 13 -10 31 -18 39 -18 17 0 46
-13 230 -102 67 -33 124 -64 127 -68 3 -4 17 -11 32 -15 16 -3 35 -13 43 -20
16 -14 101 -47 183 -70 26 -8 57 -21 69 -29 12 -9 32 -16 43 -16 11 -1 38 -8
60 -16 22 -8 69 -24 105 -34 142 -40 270 -93 270 -111 0 -11 126 -69 149 -69
9 0 37 -11 63 -25 26 -14 59 -25 73 -25 14 0 40 -7 56 -16 17 -8 61 -24 97
-34 165 -46 187 -53 211 -68 15 -9 35 -23 46 -33 11 -9 58 -24 105 -32 139
-25 251 -47 320 -64 36 -8 100 -21 142 -29 42 -7 86 -18 97 -24 12 -6 47 -15
78 -21 32 -6 69 -17 84 -24 14 -8 57 -19 95 -26 38 -6 79 -16 91 -22 16 -7 26
-7 37 3 10 7 30 10 53 7 53 -8 183 -45 197 -56 7 -6 32 -13 56 -17 25 -4 61
-15 80 -24 19 -10 53 -21 75 -25 22 -3 72 -22 110 -41 l70 -35 18 22 c9 12 17
31 17 43 1 112 23 437 35 496 7 41 17 145 20 230 4 85 11 175 17 200 5 25 14
108 19 185 5 77 16 196 25 265 9 68 20 192 25 275 12 197 32 343 51 361 21 21
759 31 798 11 23 -12 25 -18 28 -96 2 -45 -2 -122 -8 -169 -6 -48 -15 -177
-21 -287 -5 -110 -19 -306 -30 -435 -10 -129 -19 -280 -20 -335 0 -55 -4 -131
-8 -170 -14 -122 -30 -314 -41 -509 -10 -169 -10 -190 5 -206 19 -21 100 -26
580 -35 167 -3 314 -11 365 -20 171 -28 259 -35 460 -36 113 0 311 -5 440 -11
337 -15 512 -13 700 6 91 9 298 19 460 22 181 3 326 10 375 19 44 7 173 16
286 19 114 3 217 10 230 14 13 5 80 15 149 21 69 6 168 19 220 27 277 46 451
67 625 74 153 6 202 12 253 29 35 11 74 21 86 21 13 0 47 8 77 19 30 10 77 21
104 25 28 4 76 16 108 27 37 12 84 19 135 19 75 0 100 5 307 70 33 11 78 22
100 26 22 4 56 13 77 20 20 7 78 17 130 24 59 7 128 24 188 46 52 19 115 42
140 49 25 8 83 27 130 44 47 16 114 37 150 46 36 9 70 20 75 25 6 4 36 13 69
19 32 6 64 15 71 21 6 5 41 16 77 25 39 9 89 30 120 50 29 20 70 40 90 46 20
5 40 14 43 19 3 4 22 14 43 20 37 12 80 30 162 69 25 11 50 21 57 21 13 0 147
52 209 81 22 10 44 19 48 19 4 0 22 7 39 14 18 8 57 24 87 34 115 41 144 54
168 72 14 11 30 20 36 20 6 0 37 18 69 40 31 22 64 40 71 40 8 0 28 11 44 25
17 14 36 25 44 25 8 0 29 11 48 25 19 14 40 25 46 25 7 0 30 11 50 25 20 14
45 25 54 25 10 0 23 7 30 15 6 8 22 17 33 21 20 6 87 48 157 99 15 11 40 29
56 40 16 11 35 25 42 32 7 7 50 37 96 67 46 31 116 90 157 132 41 41 99 94
129 117 30 23 73 59 95 79 22 21 43 38 47 38 7 0 68 103 110 184 9 18 23 38
32 45 9 8 16 18 16 24 0 5 17 35 38 65 50 73 48 70 77 133 14 31 25 66 25 78
0 19 34 98 61 141 5 8 16 29 24 47 8 17 26 48 39 68 14 19 35 57 47 83 12 26
27 54 34 62 6 8 31 69 54 135 24 66 80 215 126 330 46 116 91 235 99 265 9 30
27 91 40 135 24 81 45 178 90 425 14 74 32 173 41 220 9 47 25 130 34 185 10
55 23 118 29 140 6 22 19 76 28 120 8 44 20 98 24 120 5 22 9 146 10 276 0
237 12 420 32 494 13 49 18 687 6 760 -25 143 -30 196 -37 375 -6 144 -13 205
-25 232 -9 22 -16 65 -16 105 0 46 -7 82 -21 112 -11 25 -26 72 -34 105 -7 34
-21 86 -29 116 -9 30 -16 74 -16 98 0 23 -7 59 -16 80 -9 22 -19 97 -26 182
-6 85 -16 156 -24 173 -8 15 -18 58 -23 95 -5 38 -16 82 -24 99 -9 16 -19 54
-23 84 -3 30 -15 68 -25 85 -11 17 -19 47 -19 65 0 19 -9 48 -19 65 -11 18
-23 54 -27 80 -4 27 -15 60 -25 73 -11 13 -19 30 -19 39 0 8 -9 33 -20 56 -32
67 -68 168 -76 211 -8 47 -49 138 -69 155 -7 6 -17 24 -20 40 -3 15 -15 36
-26 46 -10 9 -19 29 -19 44 0 15 -10 36 -25 50 -14 13 -25 34 -25 46 0 12 -7
30 -16 38 -9 9 -20 33 -26 54 -5 20 -19 45 -29 55 -10 10 -19 27 -19 38 0 11
-9 37 -20 57 -31 60 -58 124 -69 168 -6 22 -20 49 -31 59 -11 10 -20 24 -20
30 0 7 -7 18 -16 26 -15 13 -37 50 -70 119 -9 19 -22 42 -29 50 -7 8 -16 26
-20 40 -4 14 -16 36 -26 49 -11 13 -19 31 -19 40 0 10 -11 32 -25 51 -14 19
-25 44 -25 55 0 12 -9 32 -20 45 -11 13 -20 32 -20 42 0 10 -11 29 -24 41 -13
12 -26 32 -30 43 -4 12 -15 29 -26 39 -11 10 -20 22 -20 27 0 4 -20 34 -45 66
-25 31 -45 62 -45 67 0 6 -19 31 -43 57 -23 26 -53 64 -67 83 -14 20 -35 49
-47 65 -13 15 -23 32 -23 37 0 6 -9 18 -21 29 -11 10 -27 32 -35 49 -8 16 -25
48 -39 70 -14 22 -31 52 -38 67 -7 14 -51 68 -99 120 -96 103 -257 299 -278
337 -14 27 -15 29 -58 81 -16 19 -43 59 -62 88 -18 28 -41 52 -49 52 -27 0
-58 27 -108 94 -26 35 -85 103 -129 152 -45 49 -97 107 -115 128 -114 132
-152 166 -425 381 -42 33 -102 84 -133 112 -31 29 -59 53 -62 53 -3 0 -22 12
-41 28 -37 28 -54 40 -99 70 -62 40 -89 60 -169 124 -96 77 -161 132 -201 168
-15 14 -44 36 -64 50 -20 14 -48 35 -63 46 -15 12 -38 25 -52 29 -14 4 -41 16
-60 26 -19 11 -40 19 -46 19 -6 0 -18 7 -25 16 -7 9 -22 20 -34 25 -20 9 -46
26 -162 103 -118 79 -129 86 -140 86 -6 0 -21 8 -34 18 -13 11 -37 22 -53 26
-16 4 -41 16 -54 27 -14 10 -34 19 -44 19 -11 0 -31 9 -45 20 -14 11 -31 20
-37 20 -7 0 -27 11 -45 24 -19 14 -46 28 -62 31 -16 4 -29 11 -29 16 0 9 -37
31 -110 65 -19 9 -42 22 -50 29 -8 7 -26 16 -40 20 -14 4 -33 14 -42 22 -10 9
-39 19 -65 24 -49 9 -62 15 -223 92 -108 52 -214 97 -230 97 -17 0 -122 51
-149 72 -13 10 -40 18 -60 18 -20 0 -56 9 -80 20 -24 11 -69 23 -100 26 -31 4
-69 13 -85 21 -16 8 -57 19 -92 24 -35 5 -81 18 -101 29 -21 11 -51 20 -68 20
-16 0 -43 9 -60 20 -16 11 -39 20 -50 20 -11 0 -40 10 -65 22 -32 15 -75 23
-150 28 -78 5 -116 12 -147 28 -23 12 -58 22 -78 22 -20 0 -53 9 -73 19 -20
11 -62 24 -92 30 -129 27 -218 41 -254 41 -21 0 -53 8 -70 19 -21 13 -59 20
-121 24 -54 3 -106 13 -130 24 -34 15 -82 18 -340 23 -250 5 -306 9 -337 23
-32 15 -73 17 -280 16 -207 0 -253 -3 -313 -19z m735 -430 c52 -6 180 -17 284
-25 104 -9 192 -18 197 -21 5 -3 67 -12 137 -20 70 -7 153 -21 185 -29 32 -8
72 -15 89 -15 27 0 139 -23 253 -51 22 -6 72 -17 110 -24 39 -8 95 -21 125
-29 30 -8 96 -25 145 -36 86 -20 198 -53 295 -86 25 -9 63 -19 86 -24 22 -5
56 -15 75 -24 19 -8 81 -31 139 -51 450 -155 889 -355 1312 -599 20 -11 70
-39 110 -62 83 -46 360 -218 398 -246 14 -11 70 -49 125 -85 316 -208 593
-430 935 -749 192 -179 444 -432 535 -536 22 -25 89 -100 148 -166 59 -66 118
-134 130 -151 12 -17 56 -72 97 -123 79 -97 196 -255 292 -393 30 -44 69 -100
87 -125 74 -106 183 -275 266 -415 112 -187 325 -584 325 -605 0 -9 8 -26 17
-40 30 -43 104 -203 259 -561 13 -31 24 -63 24 -71 0 -8 4 -18 9 -23 5 -6 18
-35 29 -65 10 -30 39 -111 64 -180 73 -201 140 -425 209 -695 11 -44 27 -102
34 -130 8 -27 17 -70 20 -95 6 -43 18 -102 64 -305 11 -49 23 -119 27 -155 3
-36 11 -73 16 -83 5 -10 15 -82 22 -160 8 -78 18 -153 24 -168 15 -38 46 -792
38 -949 -3 -74 -11 -225 -16 -336 -5 -110 -14 -221 -19 -247 -6 -25 -16 -102
-21 -169 -6 -68 -17 -148 -25 -178 -8 -30 -17 -89 -20 -130 -4 -41 -15 -102
-25 -135 -9 -33 -21 -86 -25 -118 -3 -32 -13 -74 -21 -92 -8 -19 -14 -46 -14
-59 0 -46 -40 -136 -60 -136 -10 0 -41 26 -69 59 -58 67 -63 94 -29 156 30 55
39 274 13 324 -21 42 -22 134 -2 194 9 26 17 60 17 75 0 16 9 68 19 117 11 50
22 146 26 215 4 69 13 177 21 240 18 149 20 640 2 658 -16 16 -84 15 -144 -2
-27 -8 -76 -18 -109 -22 -33 -4 -86 -15 -119 -25 -32 -11 -72 -19 -88 -19 -16
0 -45 -7 -65 -15 -46 -19 -83 -19 -83 0 0 8 16 32 36 52 20 21 59 85 87 142
l52 105 0 195 0 196 -39 115 c-21 63 -45 123 -54 133 -21 24 -59 21 -80 -5 -9
-12 -82 -88 -162 -168 -112 -114 -152 -160 -173 -206 -38 -82 -54 -108 -65
-112 -13 -4 -45 132 -37 158 4 11 1 44 -6 72 -13 47 -12 52 5 62 77 46 245
179 284 225 107 126 141 189 171 313 38 154 19 361 -46 505 -14 32 -35 79 -46
105 -32 70 -81 85 -106 31 -16 -36 -96 -138 -125 -160 -68 -51 -172 -205 -228
-336 -37 -89 -36 -91 -68 58 -12 55 -26 114 -32 130 -26 75 -23 90 24 123 23
16 67 56 96 88 29 33 66 73 82 91 52 56 125 293 136 438 11 155 -39 353 -140
553 -20 40 -43 75 -51 79 -42 15 -108 -37 -186 -147 -103 -145 -125 -206 -171
-467 -6 -35 -14 -63 -18 -63 -3 0 -29 48 -58 108 -29 59 -65 127 -79 152 -14
25 -37 66 -52 92 -104 184 -283 394 -394 462 -20 11 -68 41 -107 65 -72 43
-176 84 -260 102 -53 11 -455 15 -488 5 -53 -17 -45 -102 21 -233 115 -231
253 -367 430 -424 51 -17 110 -40 132 -52 37 -19 55 -21 237 -22 228 0 219 3
269 -104 17 -36 46 -97 64 -136 19 -38 46 -99 60 -135 15 -36 33 -78 41 -95
16 -37 80 -235 105 -328 10 -37 21 -73 25 -79 18 -28 77 -303 71 -323 -2 -5
-17 4 -33 21 -49 51 -220 168 -271 185 -21 7 -60 23 -88 35 -27 13 -62 24 -76
24 -15 0 -43 7 -62 15 -20 8 -69 17 -109 21 -40 3 -86 10 -103 15 -25 8 -33 6
-47 -12 -25 -30 -23 -67 13 -194 38 -135 78 -224 151 -335 62 -94 99 -136 176
-195 153 -118 300 -177 471 -190 41 -3 76 -7 76 -8 14 -21 56 -186 56 -223 1
-27 7 -75 14 -106 8 -34 9 -60 4 -64 -12 -7 -49 5 -49 16 0 14 -182 142 -239
168 -72 33 -174 61 -356 98 -121 24 -187 27 -209 10 -17 -14 -18 -20 -7 -63
32 -125 117 -324 172 -403 24 -34 51 -72 59 -84 30 -44 179 -172 240 -206 120
-67 267 -110 376 -110 111 0 124 -76 30 -181 -97 -107 -212 -301 -230 -386
-14 -63 -27 -60 -120 23 -47 42 -107 92 -133 111 -103 73 -228 153 -239 153
-6 0 -17 7 -24 15 -6 8 -37 24 -68 35 -32 12 -64 28 -72 35 -8 7 -37 19 -63
26 -44 11 -50 10 -67 -7 -18 -18 -19 -44 -21 -391 -2 -348 -1 -374 16 -393 10
-11 22 -20 26 -20 4 0 66 -32 138 -71 79 -42 140 -69 153 -67 21 3 23 10 30
93 7 100 28 187 45 192 21 7 207 -227 265 -332 50 -91 60 -117 50 -127 -10
-10 -35 4 -163 89 -19 12 -42 23 -50 23 -8 0 -30 11 -49 25 -39 29 -68 32 -77
8 -4 -10 2 -23 18 -35 87 -67 237 -214 304 -298 71 -88 127 -195 165 -315 18
-55 37 -111 42 -125 l11 -25 13 30 c65 146 218 260 364 272 92 8 283 -24 388
-65 104 -41 264 -174 302 -252 11 -25 30 -62 41 -82 20 -39 25 -78 10 -78 -5
0 -14 14 -21 31 -9 22 -18 29 -34 27 -17 -2 -21 -10 -22 -38 -1 -53 -13 -80
-35 -80 -10 0 -19 5 -19 10 0 6 -4 10 -10 10 -5 0 -10 -21 -10 -46 0 -46 -37
-145 -94 -255 -23 -43 -64 -188 -80 -282 -4 -22 -20 -52 -37 -69 -16 -17 -29
-36 -29 -43 0 -7 -7 -18 -15 -25 -8 -7 -25 -32 -37 -57 -12 -25 -30 -49 -40
-54 -10 -5 -30 -33 -44 -62 -15 -29 -38 -65 -51 -82 -31 -37 -147 -215 -169
-258 -9 -18 -35 -52 -57 -77 -58 -66 -96 -112 -147 -176 -25 -31 -59 -72 -75
-89 -17 -18 -48 -55 -70 -81 -22 -27 -45 -53 -53 -57 -11 -8 -103 -102 -262
-269 -30 -32 -59 -62 -65 -67 -138 -127 -182 -169 -191 -184 -14 -24 -100 -92
-139 -110 -38 -18 -59 -42 -49 -59 4 -7 4 -10 -1 -6 -14 13 -122 -56 -174
-111 -16 -17 -35 -31 -43 -31 -8 0 -34 -20 -57 -45 -23 -25 -64 -56 -89 -69
-26 -13 -58 -36 -71 -50 -14 -14 -28 -26 -33 -26 -5 0 -21 -9 -36 -20 -15 -10
-39 -22 -53 -25 -20 -5 -27 -1 -37 20 -6 14 -23 30 -37 35 -14 5 -25 14 -25
19 0 16 39 49 115 98 39 25 102 66 140 91 376 243 663 558 826 907 74 159 79
171 79 191 0 11 4 24 10 30 15 15 65 167 94 289 15 61 34 137 43 170 52 199
98 561 98 779 0 164 -12 197 -39 107 -20 -66 -84 -202 -128 -271 -64 -100
-275 -308 -394 -390 -206 -141 -331 -208 -534 -287 -36 -14 -94 -36 -130 -50
-36 -14 -83 -30 -105 -35 -22 -6 -64 -19 -93 -29 -30 -11 -64 -19 -75 -19 -12
-1 -40 -8 -62 -16 -22 -8 -71 -22 -110 -29 -38 -8 -95 -21 -125 -30 -30 -8
-67 -15 -83 -15 -15 0 -41 -7 -56 -14 -15 -8 -79 -19 -142 -25 -63 -6 -136
-17 -164 -25 -35 -11 -93 -16 -190 -16 -77 0 -169 -5 -205 -10 -118 -18 -388
-23 -505 -10 -60 7 -189 15 -285 20 -96 4 -188 13 -205 19 -16 7 -81 17 -145
22 -63 5 -128 14 -145 20 -16 6 -64 17 -105 25 -41 7 -100 20 -130 29 -30 8
-67 15 -83 15 -15 0 -38 6 -50 14 -12 8 -48 19 -80 25 -31 6 -65 15 -76 20
-10 6 -36 15 -57 20 -38 10 -142 47 -254 91 -84 32 -390 185 -440 219 -25 17
-49 31 -54 31 -4 0 -21 10 -36 23 -15 12 -54 41 -86 64 -66 46 -242 225 -290
294 -46 65 -119 198 -134 244 -18 55 -49 115 -60 115 -20 0 -25 -34 -36 -250
-19 -356 -34 -532 -49 -567 -14 -32 -46 -50 -250 -142 -38 -18 -83 -39 -100
-48 -16 -8 -52 -21 -80 -28 -27 -7 -63 -18 -80 -24 -50 -17 -155 -41 -245 -55
-47 -8 -98 -19 -114 -25 -17 -7 -95 -16 -175 -21 -80 -5 -162 -14 -181 -21
-20 -6 -156 -15 -310 -19 -151 -5 -340 -16 -420 -25 -115 -12 -229 -15 -550
-13 l-405 3 -3 23 c-2 13 6 39 18 59 19 33 58 128 149 368 93 245 126 356 154
515 32 177 54 292 73 385 8 39 19 126 24 195 6 69 16 163 22 210 8 55 12 200
11 407 -2 242 1 324 10 331 7 6 57 13 112 17 55 4 134 13 177 20 42 8 125 17
185 21 59 3 146 12 193 20 47 7 146 18 220 24 74 6 152 15 175 20 22 5 99 14
170 20 72 6 153 15 180 21 28 5 118 16 200 24 149 14 342 35 690 75 99 11 212
23 250 26 39 4 80 13 93 20 22 14 31 57 13 68 -5 3 -12 18 -16 33 -15 64 -294
637 -402 828 -157 276 -246 415 -465 721 -83 115 -94 144 -54 144 37 0 310
-69 376 -95 19 -8 51 -17 70 -21 36 -7 211 -73 315 -119 65 -29 277 -144 285
-155 3 -3 30 -23 61 -43 168 -111 374 -319 514 -519 121 -173 241 -433 315
-678 17 -58 39 -132 50 -165 10 -33 21 -78 25 -100 8 -52 35 -126 51 -144 11
-12 23 -12 66 -3 73 15 228 57 258 70 14 5 44 15 67 21 31 9 44 18 48 34 8 31
-55 271 -118 447 -18 52 -43 123 -55 157 -177 506 -506 948 -932 1253 -104 75
-310 184 -465 248 -150 61 -411 144 -510 162 -27 5 -70 14 -95 19 -99 23 -359
61 -420 62 -36 1 -92 4 -125 8 l-60 6 -27 55 c-15 30 -28 63 -28 73 0 29 36
55 87 62 82 10 198 74 319 173 59 48 153 165 204 252 24 41 52 90 63 108 10
18 29 52 41 75 98 185 122 229 155 286 96 168 188 374 234 521 111 357 129
590 81 1016 l-6 50 89 90 c67 68 99 109 132 174 50 97 87 197 106 290 8 36 21
90 30 120 22 78 22 541 0 620 -9 30 -22 94 -29 141 -8 48 -20 98 -27 110 -7
13 -16 40 -20 59 -39 181 -226 555 -360 720 -25 30 -50 63 -55 73 -16 28 -217
230 -313 314 -80 71 -229 175 -325 228 -147 82 -423 205 -459 205 -8 0 -49 11
-91 25 -42 14 -92 25 -110 25 -18 0 -51 8 -72 17 -26 11 -84 20 -174 25 -74 4
-175 11 -225 14 -51 4 -134 1 -191 -6 -94 -11 -106 -10 -169 9 -61 19 -92 21
-355 21 -238 0 -295 -3 -331 -16 -24 -9 -77 -20 -118 -25 -40 -4 -79 -13 -86
-19 -7 -5 -45 -19 -86 -29 -229 -58 -584 -237 -789 -398 -146 -113 -381 -350
-489 -493 -142 -187 -319 -493 -361 -625 -7 -22 -16 -44 -20 -50 -9 -13 -51
-144 -83 -260 -35 -127 -55 -224 -72 -345 -7 -58 -19 -139 -26 -180 -7 -50
-10 -153 -6 -307 6 -264 8 -256 -78 -267 -70 -9 -162 -55 -216 -108 -29 -28
-63 -78 -90 -133 l-44 -88 0 -121 c1 -110 3 -126 28 -177 15 -31 27 -59 27
-63 0 -4 9 -19 20 -35 18 -23 19 -32 10 -57 -6 -16 -22 -40 -34 -54 -130 -140
-173 -417 -88 -574 42 -78 144 -180 215 -216 34 -17 65 -36 69 -43 4 -6 8 -35
8 -63 0 -61 38 -167 81 -230 107 -156 322 -288 594 -365 55 -16 110 -29 122
-29 12 0 59 -9 105 -20 46 -11 117 -20 158 -20 105 -1 345 57 447 107 54 27
83 26 83 -3 0 -32 -245 -392 -327 -481 -33 -34 -47 -42 -89 -47 -27 -4 -69
-11 -94 -16 -25 -5 -74 -14 -110 -20 -252 -43 -532 -135 -765 -252 -328 -164
-628 -426 -816 -713 -48 -72 -169 -282 -169 -292 0 -3 -12 -31 -26 -62 -23
-48 -62 -148 -103 -266 -25 -72 -50 -163 -56 -200 -3 -22 -12 -58 -20 -80 -12
-37 -48 -195 -80 -345 -7 -36 -25 -146 -39 -245 -15 -99 -35 -229 -46 -290
-11 -60 -22 -144 -25 -185 -4 -41 -12 -100 -20 -130 -7 -30 -16 -98 -20 -150
-3 -52 -12 -122 -20 -155 -7 -33 -17 -100 -20 -150 -4 -49 -13 -119 -21 -155
-8 -36 -19 -119 -24 -185 -5 -66 -16 -151 -24 -190 -9 -38 -16 -95 -16 -125
-1 -138 -47 -205 -86 -127 -9 17 -39 61 -66 96 -28 35 -53 75 -58 90 -10 35 7
170 25 198 8 12 15 46 15 75 0 29 7 85 16 123 8 39 19 119 25 178 5 60 15 134
23 165 8 31 17 102 21 157 3 55 12 129 20 165 8 36 19 117 25 180 5 63 17 144
25 180 8 36 15 99 15 140 0 41 9 113 20 160 11 47 20 117 20 156 0 38 9 105
20 148 22 83 19 116 -9 116 -10 0 -122 -52 -247 -116 -208 -105 -253 -129
-354 -187 -44 -26 -213 -151 -229 -171 -7 -9 -20 -16 -27 -16 -18 0 -18 37 1
159 8 53 19 168 24 256 6 88 16 192 23 230 l13 70 40 3 c120 9 356 83 428 134
137 97 269 263 327 409 23 58 42 105 84 208 30 75 31 84 11 101 -13 11 -30 11
-83 2 -37 -7 -106 -18 -155 -26 -48 -8 -91 -18 -96 -21 -5 -3 -33 -10 -62 -15
-30 -6 -104 -34 -165 -64 -90 -43 -123 -65 -171 -115 -33 -33 -65 -61 -71 -61
-18 0 -15 47 8 134 12 43 25 119 29 171 14 143 25 155 151 155 87 0 122 10
259 77 71 35 226 155 244 191 6 9 18 26 28 38 56 61 145 248 188 391 26 88 26
105 1 128 -18 16 -26 17 -73 7 -28 -6 -79 -15 -112 -21 -179 -31 -374 -106
-448 -171 -19 -16 -40 -30 -46 -30 -14 0 -14 25 0 52 7 12 18 44 25 72 31 120
47 172 55 182 5 6 18 42 28 80 26 98 61 190 98 259 22 41 60 135 92 225 16 44
48 104 79 146 43 58 58 89 77 164 22 80 25 112 25 265 0 171 -1 176 -34 277
-30 91 -46 127 -103 228 -48 86 -130 195 -147 195 -24 0 -102 -142 -128 -234
-38 -130 -40 -152 -35 -314 4 -150 7 -168 35 -242 17 -44 44 -105 61 -135 17
-30 31 -64 31 -74 0 -15 -111 -248 -127 -266 -11 -12 -20 28 -22 106 -1 47 -7
97 -12 112 -6 15 -15 51 -19 81 -20 119 -167 366 -263 441 -25 20 -30 21 -50
7 -28 -18 -112 -159 -134 -224 -9 -26 -19 -52 -24 -58 -4 -5 -19 -57 -33 -115
-37 -150 -37 -314 0 -432 28 -89 77 -180 128 -240 17 -20 39 -48 49 -63 11
-14 52 -51 93 -81 45 -33 76 -64 80 -79 4 -15 -2 -46 -14 -77 -11 -29 -25 -73
-32 -98 -42 -159 -47 -175 -60 -175 -15 0 -19 8 -73 126 -19 42 -63 118 -97
169 -34 51 -70 108 -79 129 -9 20 -30 57 -46 83 -36 55 -65 103 -83 135 -7 13
-24 31 -38 40 -24 15 -27 15 -51 -3 -29 -22 -122 -196 -159 -298 -44 -122 -44
-361 1 -493 19 -55 120 -203 184 -269 54 -56 157 -131 232 -169 26 -14 53 -34
59 -45 11 -21 1 -111 -19 -162 -6 -15 -13 -58 -17 -95 -11 -116 -46 -142 -73
-54 -6 22 -22 53 -35 68 -13 15 -31 42 -40 58 -42 76 -152 194 -311 335 -122
107 -181 150 -207 150 -26 0 -45 -38 -52 -105 -4 -33 -14 -87 -23 -120 -34
-132 3 -453 67 -572 11 -21 20 -41 20 -46 0 -4 22 -40 49 -80 58 -86 154 -185
197 -203 17 -7 36 -19 43 -27 14 -17 94 -57 166 -82 91 -33 88 -23 70 -246
-20 -244 -27 -294 -42 -294 -6 0 -32 29 -59 65 -207 282 -436 467 -903 729
-87 49 -116 58 -136 41 -13 -11 -15 -67 -14 -389 0 -207 5 -401 10 -431 5 -30
15 -134 23 -230 14 -181 23 -239 88 -555 13 -65 5 -168 -17 -225 -28 -69 -30
-165 -7 -236 36 -108 36 -119 5 -153 -38 -42 -84 -50 -112 -20 -22 24 -41 77
-41 119 0 14 -9 54 -20 88 -11 35 -20 81 -20 102 0 21 -7 55 -16 76 -9 21 -20
80 -25 131 -5 51 -15 117 -23 146 -8 28 -17 89 -20 135 -4 46 -14 113 -22 150
-9 37 -20 148 -24 247 -5 99 -14 209 -21 245 -17 89 -18 913 -1 953 6 15 16
112 22 215 6 103 17 216 25 252 9 36 20 110 25 165 5 55 16 125 25 155 8 30
15 71 15 91 0 20 8 60 18 90 11 30 22 82 25 117 4 34 13 75 21 90 8 16 18 57
22 93 4 35 13 73 19 84 7 11 16 43 19 71 3 27 15 76 26 107 11 31 20 68 20 81
0 14 8 45 19 68 16 37 89 253 138 408 15 47 42 116 74 188 10 23 19 47 19 53
0 9 68 185 110 284 158 370 502 1007 715 1324 181 268 270 393 420 586 50 64
97 127 106 140 8 13 60 75 115 137 55 62 143 163 195 223 51 61 204 221 339
356 416 417 706 662 1105 934 28 19 76 52 109 75 32 22 60 40 63 40 3 0 35 21
72 47 87 61 357 221 518 306 70 37 135 71 143 77 8 5 62 32 120 61 58 29 112
56 120 60 62 32 221 103 301 132 53 20 109 43 125 51 26 13 166 66 302 116 29
11 76 28 105 39 75 27 146 51 192 63 22 5 54 16 70 24 17 7 60 20 95 28 115
26 194 48 220 61 14 7 48 15 75 19 28 3 70 13 95 21 25 8 72 19 105 24 33 5
74 14 90 19 31 11 154 36 265 53 36 5 115 18 175 29 61 11 142 22 180 25 39 3
104 12 145 20 41 7 129 16 195 20 66 3 152 11 190 17 161 23 821 29 1015 8z
m-2525 -1215 c0 -15 -9 -21 -45 -27 -71 -12 -306 -101 -380 -144 -302 -174
-450 -300 -662 -565 -116 -143 -182 -254 -269 -444 -24 -54 -102 -268 -119
-330 -37 -134 -69 -342 -81 -528 -7 -103 -16 -187 -19 -187 -4 0 -10 27 -14
60 -4 33 -14 79 -23 103 -20 55 -29 335 -14 477 44 450 252 879 576 1189 53
50 111 102 129 114 128 87 179 118 236 145 141 66 208 92 273 107 37 8 77 20
90 25 24 11 216 29 282 26 33 -1 40 -5 40 -21z m1507 -9 c24 -8 66 -18 93 -21
148 -21 389 -133 565 -264 183 -137 365 -374 468 -611 70 -164 90 -218 98
-275 4 -27 13 -62 20 -77 18 -34 19 -111 2 -106 -7 3 -17 22 -23 44 -5 21 -17
50 -25 64 -39 68 -50 87 -64 115 -39 82 -199 315 -215 315 -4 0 -15 14 -25 30
-19 33 -273 290 -286 290 -5 0 -32 20 -62 43 -63 52 -90 67 -118 67 -31 0 -34
-23 -15 -94 14 -51 16 -93 13 -222 -5 -169 -23 -254 -81 -386 -116 -260 -427
-513 -837 -678 -169 -68 -234 -90 -307 -104 -34 -6 -68 -17 -75 -24 -6 -6 -34
-12 -61 -12 -67 0 -57 22 15 35 30 6 62 16 70 22 8 7 30 16 48 20 56 11 400
188 517 266 61 40 132 93 157 117 26 25 53 48 61 53 33 18 177 203 221 283 25
47 60 129 76 182 28 93 29 103 26 257 -3 127 -7 167 -21 192 -9 18 -17 41 -17
53 0 62 -159 283 -252 349 -68 48 -90 70 -83 81 9 14 67 12 117 -4z m788
-1268 c55 -59 158 -221 199 -315 80 -183 100 -258 111 -419 12 -165 7 -230
-21 -244 -10 -6 -59 -10 -109 -10 -110 0 -222 -28 -298 -73 -71 -42 -84 -56
-121 -120 -53 -94 -73 -190 -78 -378 -5 -151 -3 -178 22 -295 14 -71 44 -180
67 -243 62 -173 56 -180 -172 -206 -212 -23 -243 -29 -247 -42 -7 -20 58 -26
281 -27 229 -1 231 0 322 60 47 31 54 40 54 69 0 18 -11 58 -25 88 -41 89
-105 366 -105 454 0 41 10 46 83 44 42 -1 86 6 144 25 62 20 87 24 96 15 14
-14 30 -261 23 -381 -14 -263 -151 -591 -510 -1217 -135 -237 -184 -288 -320
-332 -146 -48 -375 -50 -515 -5 -40 13 -82 24 -93 24 -22 0 -197 74 -299 126
-36 19 -69 34 -73 34 -10 0 -198 124 -267 176 -222 169 -475 453 -594 667 -73
130 -88 174 -90 262 -2 59 -8 92 -23 121 -38 74 -62 77 -75 7 -3 -17 -20 -54
-38 -82 -72 -119 -232 -146 -308 -53 -28 33 -31 43 -31 106 0 52 5 77 21 102
25 40 18 69 -19 88 -63 33 -144 145 -163 226 -5 19 -6 63 -2 97 5 58 9 66 57
117 44 47 58 55 99 61 35 6 60 3 93 -10 52 -20 120 -86 129 -125 8 -37 62
-100 86 -100 24 0 39 36 39 93 0 23 7 74 16 112 9 39 21 97 28 130 17 77 50
151 73 163 10 5 43 13 73 17 30 3 71 11 90 16 19 6 73 16 120 24 77 12 165 32
360 81 100 25 265 73 600 174 112 34 215 72 270 100 21 11 44 20 51 20 19 0
262 126 345 178 251 161 413 332 524 553 47 92 69 101 120 47z m-1842 -665
c-10 -2 -26 -2 -35 0 -10 3 -2 5 17 5 19 0 27 -2 18 -5z m2072 -528 c11 -13 8
-27 -16 -83 -53 -125 -107 -162 -238 -162 -111 0 -126 21 -82 115 25 54 39 69
100 105 66 40 211 55 236 25z m-2723 -2057 c11 -13 23 -30 26 -39 5 -14 58
-98 123 -194 39 -56 209 -239 285 -305 117 -103 155 -130 257 -182 202 -102
354 -132 609 -116 65 4 126 5 136 2 22 -7 54 -78 63 -137 4 -23 13 -55 21 -71
8 -15 21 -47 28 -70 35 -108 50 -143 131 -312 24 -50 44 -104 44 -120 0 -32
-26 -73 -140 -219 -41 -53 -85 -110 -97 -128 -40 -60 -61 -77 -95 -77 -23 0
-153 60 -423 196 -214 108 -444 226 -510 262 -66 36 -151 82 -190 103 -144 75
-461 253 -485 271 -44 34 -188 132 -245 167 -73 45 -72 61 8 159 161 196 290
441 382 727 34 107 33 105 43 105 5 0 18 -10 29 -22z m-924 -1192 c66 -28 348
-336 453 -494 167 -253 327 -599 378 -822 7 -30 18 -71 24 -90 20 -59 52 -203
67 -296 7 -49 18 -114 24 -144 32 -171 45 -348 48 -644 2 -203 0 -321 -7 -340
-6 -17 -16 -89 -21 -161 -6 -71 -17 -150 -24 -175 -8 -25 -17 -70 -20 -100 -4
-30 -13 -79 -21 -108 -8 -29 -21 -85 -29 -125 -18 -95 -43 -190 -65 -252 -128
-354 -179 -474 -224 -524 -25 -28 -179 -101 -212 -101 -32 0 -31 22 4 62 43
52 161 212 239 327 43 63 16 95 -45 53 -79 -53 -169 -76 -179 -45 -2 6 27 47
64 90 102 115 199 260 218 321 9 32 -12 29 -103 -17 -170 -85 -196 -95 -229
-92 -24 2 -13 30 72 197 47 91 85 175 85 185 0 11 9 37 20 59 11 22 20 46 20
55 0 9 9 37 21 62 20 44 20 73 0 73 -6 0 -15 -9 -21 -19 -15 -29 -145 -180
-168 -197 -17 -12 -22 -12 -32 1 -10 12 -9 24 4 59 9 25 21 82 26 128 5 46 16
118 25 161 18 93 21 547 5 643 -32 178 -53 240 -91 259 -50 27 -79 19 -127
-32 -37 -41 -102 -155 -102 -181 0 -4 -18 -57 -39 -117 -21 -61 -53 -159 -71
-220 -17 -60 -47 -159 -66 -220 -31 -101 -45 -151 -106 -375 -11 -41 -29 -102
-39 -135 -10 -33 -25 -89 -33 -125 -19 -86 -105 -415 -161 -615 -24 -88 -60
-221 -80 -295 -58 -214 -145 -477 -164 -494 -10 -9 -41 -20 -70 -26 -29 -5
-56 -12 -61 -15 -5 -3 -44 -16 -87 -28 -72 -21 -119 -48 -287 -163 -70 -48
-266 -294 -266 -335 0 -30 31 -30 94 0 185 90 440 168 716 221 145 27 615 40
644 17 22 -16 22 -16 -34 -462 -10 -82 -21 -186 -25 -230 -3 -44 -12 -120 -20
-170 -7 -49 -16 -126 -20 -170 -4 -44 -13 -118 -20 -165 -7 -47 -16 -128 -20
-180 -9 -141 -24 -209 -49 -225 -18 -12 -37 -10 -136 10 -63 14 -140 31 -170
40 -30 8 -67 15 -82 15 -15 0 -45 7 -65 15 -21 8 -63 19 -93 25 -30 5 -80 17
-110 25 -30 8 -64 15 -75 15 -11 0 -44 9 -73 20 -29 11 -65 20 -80 20 -15 0
-47 9 -71 20 -24 11 -53 20 -65 20 -11 1 -39 8 -61 16 -22 9 -62 22 -90 30
-71 19 -177 54 -197 64 -9 5 -56 25 -105 44 -153 60 -239 103 -255 127 -8 13
-21 42 -28 64 -7 22 -36 96 -65 165 -98 234 -140 383 -174 625 -10 72 -25 158
-32 190 -20 89 -17 684 4 825 9 58 18 152 22 210 3 58 12 146 20 195 8 50 16
124 20 165 7 92 40 334 61 452 9 47 22 135 29 195 17 134 43 288 55 328 5 17
16 84 25 149 9 66 18 123 20 127 3 3 12 53 20 109 8 56 18 107 21 112 4 6 13
47 20 92 20 120 44 233 65 305 11 35 19 74 19 85 0 12 16 82 36 156 20 74 40
153 45 175 6 22 37 119 71 215 99 283 190 450 359 656 57 70 220 220 276 253
17 11 59 40 93 65 62 46 260 148 350 181 156 57 500 161 543 164 4 1 22 -5 40
-13z m1222 -585 c249 -123 337 -165 445 -210 41 -18 87 -39 102 -47 15 -8 47
-21 70 -29 86 -27 367 -151 390 -171 22 -20 23 -42 4 -70 -8 -12 -20 -51 -27
-87 -17 -91 -1 -158 54 -232 56 -77 105 -99 217 -99 131 -1 190 36 251 159 20
41 29 75 29 108 0 79 -60 177 -135 222 -24 14 -45 33 -47 42 -5 21 14 64 37
83 9 8 42 48 73 90 30 41 67 91 81 110 32 42 55 75 82 118 24 36 51 55 71 47
36 -15 215 -327 423 -738 117 -233 118 -237 63 -265 -14 -6 -95 -17 -179 -22
-85 -6 -190 -17 -234 -25 -44 -7 -125 -16 -180 -20 -55 -3 -118 -10 -141 -15
-23 -5 -127 -16 -233 -24 -106 -9 -196 -18 -200 -20 -4 -3 -93 -12 -197 -21
-104 -9 -205 -20 -224 -25 -19 -5 -78 -12 -130 -15 -115 -8 -130 0 -160 90
-11 33 -31 85 -44 115 -13 30 -36 89 -52 130 -35 96 -78 199 -114 275 -95 202
-152 315 -161 321 -6 3 -19 25 -30 48 -10 22 -48 88 -84 146 -63 102 -77 140
-53 140 6 0 111 -49 233 -109z m9555 -872 c6 -11 9 -32 5 -48 -3 -15 -12 -92
-20 -171 -14 -144 -30 -234 -57 -320 -10 -33 -19 -45 -33 -45 -23 0 -24 22
-10 187 7 83 5 101 -9 123 -28 43 -50 32 -123 -62 -37 -47 -109 -129 -160
-182 -51 -52 -104 -117 -118 -144 -34 -61 -45 -169 -32 -291 10 -86 9 -90 -12
-108 -24 -19 -140 -58 -172 -58 -27 0 -35 27 -49 155 -9 85 -9 133 0 208 13
114 31 170 90 287 97 192 210 300 428 412 127 65 158 76 219 77 33 1 45 -4 53
-20z m-15065 -277 c129 -133 147 -156 241 -297 36 -55 74 -111 83 -125 67 -98
103 -217 82 -273 -15 -39 -37 -44 -69 -15 -56 52 -117 79 -194 85 -62 5 -77
10 -98 33 -65 70 -221 666 -183 703 14 14 28 3 138 -111z m1315 -489 c0 -9
-12 -31 -26 -50 -28 -37 -39 -88 -54 -248 -5 -55 -13 -118 -19 -140 -5 -22
-12 -85 -16 -140 -4 -55 -15 -127 -25 -160 -10 -33 -21 -92 -25 -130 -9 -94
-22 -150 -47 -215 -23 -56 -55 -103 -68 -95 -10 6 -26 443 -22 603 3 126 2
132 -16 132 -16 0 -32 -24 -70 -102 -28 -57 -60 -128 -72 -158 -12 -30 -41
-100 -64 -155 -23 -55 -54 -147 -70 -205 -15 -58 -37 -132 -47 -166 -10 -33
-19 -77 -19 -96 0 -20 -3 -43 -6 -52 -10 -26 -48 -19 -67 13 -60 102 -82 295
-53 471 31 185 60 258 191 480 52 90 200 232 326 316 142 93 269 140 269 97z
m13627 -269 c64 -49 80 -128 46 -226 -21 -58 -47 -69 -95 -41 l-33 19 -1 85
c0 46 -7 100 -14 120 -7 20 -10 44 -7 53 10 25 65 20 104 -10z m-14832 -256
c36 -16 70 -88 91 -189 9 -46 25 -118 36 -159 11 -41 30 -115 43 -165 13 -49
31 -139 40 -200 12 -75 26 -128 46 -167 16 -32 29 -65 29 -73 0 -14 -3 -14
-25 2 -13 10 -27 25 -30 34 -3 8 -41 53 -85 99 -44 47 -82 96 -85 111 -3 15
-15 35 -25 44 -10 9 -22 30 -25 45 -3 16 -18 41 -32 56 -80 87 -143 247 -143
364 0 74 29 165 62 193 24 20 66 22 103 5z m-274 -782 c64 -5 167 -46 287
-114 86 -49 105 -79 47 -75 -17 1 -93 6 -170 11 -112 8 -156 7 -219 -5 -43 -8
-79 -13 -80 -11 -1 2 -17 37 -35 78 -35 83 -33 107 8 116 14 3 31 7 36 9 6 1
24 1 40 -1 17 -2 55 -5 86 -8z m15366 -98 c-3 -7 -5 -2 -5 12 0 14 2 19 5 13
2 -7 2 -19 0 -25z m-156 -54 c-3 -21 -12 -39 -19 -42 -14 -4 -16 24 -2 33 6 3
10 17 10 31 0 14 4 23 8 20 5 -3 6 -22 3 -42z m-15351 -65 c0 -6 -4 -7 -10 -4
-5 3 -10 11 -10 16 0 6 5 7 10 4 6 -3 10 -11 10 -16z m1374 -132 c73 -33 160
-108 209 -180 36 -52 51 -84 102 -223 12 -34 25 -67 30 -73 4 -7 13 -36 20
-64 8 -29 26 -95 40 -147 27 -94 51 -198 79 -335 8 -38 22 -97 30 -130 9 -32
16 -77 16 -100 0 -22 8 -62 16 -90 9 -27 20 -106 24 -175 8 -129 29 -262 50
-315 6 -16 16 -52 21 -80 5 -27 13 -59 19 -70 10 -21 40 -178 35 -183 -10 -10
-55 34 -60 58 -4 18 -19 36 -41 49 -24 15 -34 27 -34 46 0 14 -4 25 -9 25 -6
0 -18 13 -27 30 -10 16 -31 34 -46 41 -18 7 -38 29 -53 58 -12 25 -35 57 -49
70 -14 14 -26 29 -26 35 0 6 -19 32 -42 58 -24 26 -63 70 -88 99 -25 28 -61
69 -80 90 -19 20 -53 63 -75 94 -39 56 -53 71 -126 142 -20 19 -51 59 -70 90
-19 31 -54 79 -79 107 -25 29 -70 87 -100 130 -30 43 -88 113 -129 156 -40 43
-78 87 -85 98 -6 11 -28 44 -48 74 -52 76 -74 194 -53 283 8 33 14 75 15 93 0
48 22 84 82 135 62 52 116 82 208 114 94 32 240 28 324 -10z m7647 -698 c116
-24 231 -66 300 -110 25 -16 50 -29 55 -29 12 0 158 -147 209 -210 80 -99 219
-160 405 -180 47 -5 105 -13 130 -19 25 -5 95 -13 155 -17 61 -4 121 -11 135
-16 13 -5 58 -16 98 -23 78 -15 161 -59 188 -100 8 -12 17 -41 20 -66 5 -36 2
-49 -16 -72 -13 -16 -34 -34 -49 -40 -19 -9 -206 -13 -663 -17 -350 -3 -640
-9 -644 -13 -15 -14 18 -25 97 -32 43 -4 86 -13 95 -20 17 -12 16 -13 -3 -23
-31 -17 -105 -32 -207 -42 -352 -35 -815 -130 -1121 -231 -33 -10 -70 -19 -83
-19 -13 0 -32 -5 -43 -11 -11 -6 -91 -30 -177 -54 -86 -24 -188 -53 -227 -65
-205 -61 -365 -107 -535 -150 -25 -7 -67 -20 -95 -30 -27 -10 -70 -22 -95 -25
-25 -4 -57 -13 -71 -21 -14 -7 -50 -16 -80 -20 -30 -3 -63 -12 -74 -19 -11 -6
-38 -15 -60 -19 -22 -4 -78 -19 -125 -33 -47 -13 -107 -31 -135 -38 -27 -7
-95 -25 -150 -40 -55 -15 -113 -25 -130 -23 l-30 3 2 150 c1 83 9 240 17 350
9 110 18 280 22 377 5 146 9 179 23 191 11 10 63 18 166 26 83 7 177 16 210
21 33 5 110 11 170 15 61 3 146 13 190 20 44 8 139 19 210 24 72 6 145 15 164
21 19 5 86 14 150 20 64 5 139 16 166 25 28 8 64 15 81 15 37 0 143 31 226 66
78 33 147 83 269 196 180 169 344 263 511 294 46 9 101 20 123 24 69 13 119
11 226 -11z m3886 -539 c65 -39 56 -115 -34 -289 -36 -69 -73 -135 -83 -146
-10 -11 -24 -32 -31 -47 -21 -40 -173 -250 -201 -275 -26 -25 -137 -63 -183
-63 -17 0 -58 -7 -90 -16 -33 -9 -89 -22 -125 -30 -72 -14 -160 -34 -291 -64
-47 -11 -97 -20 -109 -20 -13 0 -56 -9 -94 -19 -39 -11 -107 -22 -150 -26 -44
-3 -87 -10 -96 -15 -49 -26 -565 -15 -660 14 -215 66 -302 97 -417 151 -182
85 -291 160 -268 183 11 12 305 19 429 11 65 -5 158 -15 205 -23 367 -65 480
-71 611 -35 108 29 217 86 267 138 46 47 105 155 123 222 33 120 127 173 210
117 39 -26 53 -66 45 -122 -6 -42 -85 -210 -139 -296 -20 -30 -35 -61 -36 -67
-1 -41 85 15 219 143 87 82 169 196 197 272 42 116 67 162 99 182 43 26 115
27 146 1 21 -17 24 -28 24 -88 -1 -63 -5 -76 -54 -166 -29 -54 -74 -136 -102
-182 -27 -46 -49 -88 -49 -94 0 -18 23 -12 66 17 58 38 95 74 178 172 102 122
173 245 212 370 7 25 23 60 34 78 18 29 24 32 67 32 30 0 60 -7 80 -20z m693
-77 c0 -3 -7 -14 -16 -24 -9 -10 -23 -31 -32 -48 -43 -78 -290 -317 -374 -362
-35 -19 -44 -3 -13 24 17 15 118 114 225 221 183 182 210 206 210 189z
m-12130 -222 c0 -5 -7 -11 -15 -15 -9 -3 -15 0 -15 9 0 8 7 15 15 15 8 0 15
-4 15 -9z m-73 -98 c-16 -16 -17 -16 -17 3 0 11 3 24 7 28 4 3 11 2 17 -4 7
-7 5 -16 -7 -27z m227 -212 c12 -13 14 -21 6 -26 -13 -8 -40 12 -40 31 0 20
14 17 34 -5z m10920 -547 c20 -19 22 -136 4 -152 -7 -5 -33 -14 -58 -20 -25
-6 -58 -15 -75 -20 -16 -6 -70 -23 -120 -37 -49 -15 -112 -35 -140 -44 -47
-17 -128 -39 -220 -61 -22 -6 -65 -16 -95 -25 -68 -18 -234 -57 -360 -85 -52
-12 -124 -28 -160 -37 -36 -9 -101 -21 -145 -28 -44 -8 -98 -18 -119 -24 -21
-5 -73 -13 -115 -16 -42 -4 -107 -16 -146 -26 -38 -10 -99 -19 -135 -19 -36 0
-92 -7 -125 -15 -33 -8 -125 -19 -205 -25 -79 -5 -189 -16 -245 -24 -108 -16
-347 -24 -381 -12 -17 5 -29 31 -59 124 -20 64 -44 133 -52 153 -8 20 -13 47
-11 60 3 21 9 24 52 27 28 2 68 -3 90 -12 23 -8 79 -17 126 -21 47 -3 128 -13
180 -22 140 -25 750 -25 865 -1 44 9 118 20 164 23 46 4 96 11 110 17 14 5 58
16 96 23 92 17 199 43 255 62 25 8 72 19 105 23 33 5 77 16 97 24 21 9 48 16
60 16 13 0 48 7 78 16 94 26 352 95 411 108 31 8 79 21 105 29 27 9 72 20 99
26 28 5 51 9 52 10 1 0 9 -6 17 -15z"/>
<path d="M15038 10520 c-163 -37 -252 -119 -402 -367 -16 -26 -39 -64 -51 -83
-12 -19 -47 -75 -77 -125 -112 -182 -211 -342 -252 -403 -22 -34 -61 -94 -85
-132 -74 -117 -67 -114 -254 -121 -89 -3 -174 -11 -189 -17 -14 -6 -54 -16
-89 -22 -94 -17 -326 -114 -434 -181 -54 -34 -205 -158 -205 -169 0 -3 -16
-25 -35 -48 -41 -47 -115 -189 -126 -242 -4 -19 -15 -60 -23 -90 -11 -35 -16
-96 -16 -171 0 -90 -3 -121 -15 -132 -12 -12 -256 -97 -278 -97 -11 0 -255
-88 -312 -112 -27 -12 -73 -32 -102 -45 -28 -13 -54 -23 -56 -23 -11 0 -176
-95 -232 -133 -150 -102 -295 -230 -360 -317 -18 -25 -53 -83 -76 -130 l-42
-83 0 -132 c0 -132 0 -133 37 -211 41 -87 124 -204 161 -228 34 -22 62 -20 76
7 14 26 29 43 102 117 108 109 217 192 294 223 21 8 64 31 96 50 106 64 396
161 572 192 84 14 236 62 276 88 83 52 224 60 306 18 92 -47 163 -141 163
-217 0 -61 64 -85 103 -38 58 70 101 114 110 114 5 0 34 11 64 25 52 25 60 26
206 23 162 -4 157 -2 332 -74 44 -18 107 -40 141 -48 33 -9 108 -36 165 -61
64 -28 111 -43 124 -39 11 3 47 23 80 44 99 64 172 72 260 27 78 -39 103 -65
131 -139 36 -96 56 -116 127 -129 84 -15 227 -72 296 -118 70 -46 112 -58 130
-37 6 7 15 47 20 88 5 41 18 93 31 117 28 56 52 136 54 181 1 23 6 36 17 38
18 3 158 -60 247 -113 71 -41 269 -234 278 -271 12 -49 66 -52 108 -5 25 28
77 110 117 186 31 59 32 63 32 192 l0 131 -41 86 c-55 116 -110 194 -196 279
-224 225 -692 465 -1095 563 -69 16 -123 36 -138 48 -24 21 -25 22 -14 114 8
71 7 112 -4 179 -26 163 -34 201 -48 230 -31 60 -30 89 2 155 18 35 44 82 59
105 15 24 47 75 71 115 24 40 67 109 96 153 29 44 85 132 125 195 40 63 87
138 105 165 61 95 95 156 125 224 26 61 30 80 30 163 -1 78 -5 105 -29 164
-41 104 -116 195 -212 257 -14 9 -59 28 -99 42 -88 30 -169 31 -282 5z m201
-304 c43 -15 91 -81 98 -134 7 -53 -14 -112 -72 -203 -48 -75 -96 -150 -131
-204 -10 -16 -21 -35 -24 -40 -3 -6 -36 -61 -75 -123 -38 -61 -77 -125 -86
-142 -9 -16 -22 -37 -29 -45 -7 -8 -20 -29 -29 -45 -33 -60 -87 -148 -158
-258 -82 -127 -89 -157 -50 -220 27 -43 65 -140 77 -197 5 -22 9 -99 10 -172
0 -122 -2 -137 -29 -206 -96 -251 -336 -433 -641 -488 -63 -11 -269 -11 -370
1 -224 26 -451 164 -543 331 -22 41 -47 107 -62 170 l-25 103 21 90 c40 170
118 276 282 382 106 69 241 126 327 139 25 4 68 13 95 21 30 8 127 16 244 19
127 3 199 9 209 17 12 11 51 68 240 358 31 47 86 133 122 192 36 59 104 169
151 245 48 76 94 152 103 168 54 94 108 176 131 195 30 25 118 59 150 59 17 0
45 -6 64 -13z m-168 -2307 c175 -38 350 -166 445 -325 50 -83 84 -217 84 -325
0 -66 -22 -209 -36 -231 -8 -13 -40 -9 -96 13 -69 27 -85 42 -117 114 -66 146
-226 245 -394 245 -89 -1 -187 -25 -259 -65 -39 -22 -93 -18 -188 16 -47 17
-105 37 -130 46 -25 9 -49 19 -54 24 -14 12 19 56 49 63 44 11 257 137 325
192 37 29 92 81 124 116 31 35 71 78 87 96 33 36 68 41 160 21z"/>
<path d="M15080 10171 c-5 -11 -10 -45 -10 -75 0 -68 24 -96 81 -96 51 0 67 8
84 41 28 54 8 130 -37 143 -50 13 -107 7 -118 -13z"/>
<path d="M13560 8784 c-186 -121 -265 -299 -214 -482 37 -134 157 -234 349
-291 57 -18 96 -21 218 -21 138 0 153 2 234 30 158 55 276 139 360 257 48 67
63 124 63 240 0 79 -14 89 -54 38 -129 -165 -237 -236 -430 -285 -101 -25
-173 -25 -281 0 -147 34 -208 77 -264 187 -26 51 -29 149 -6 194 9 16 40 59
70 94 30 35 55 67 55 70 0 16 -53 0 -100 -31z"/>
<path d="M11243 9358 c-12 -15 7 -160 25 -195 7 -12 19 -50 26 -85 8 -35 21
-83 30 -108 23 -70 92 -316 126 -450 6 -25 20 -75 31 -111 10 -36 19 -76 19
-90 0 -13 9 -51 20 -84 11 -33 31 -99 46 -147 18 -62 30 -88 41 -88 9 0 52 22
97 49 45 27 128 72 186 101 58 29 113 59 123 68 26 23 21 57 -29 177 -25 61
-61 150 -80 200 -51 126 -86 193 -171 322 -86 130 -244 294 -370 386 -93 66
-106 72 -120 55z"/>
<path d="M12815 7184 c-99 -25 -208 -61 -245 -79 -124 -63 -291 -218 -315
-294 -46 -146 -104 -264 -142 -288 -25 -16 -73 -107 -73 -137 0 -25 45 -66 73
-66 13 0 36 9 50 20 40 32 146 78 206 91 32 6 108 10 180 7 117 -3 131 -6 196
-36 133 -63 194 -115 258 -222 39 -66 71 -98 98 -98 13 0 40 -3 60 -7 43 -8
65 9 74 58 5 26 -2 51 -34 118 -119 248 -324 369 -626 369 -57 0 -110 3 -119
6 -46 17 13 122 115 205 183 150 517 151 719 4 58 -43 98 -87 144 -157 64 -98
80 -204 52 -335 -17 -81 -13 -85 112 -94 54 -4 135 -18 183 -32 47 -14 108
-29 137 -33 69 -9 162 3 169 23 3 8 -11 47 -31 87 -29 57 -45 77 -72 90 -19 9
-59 34 -89 56 -30 22 -60 40 -66 40 -28 0 -97 42 -107 66 -7 14 -12 55 -12 92
-1 100 -36 168 -147 278 -29 28 -53 57 -53 62 0 6 -8 17 -18 24 -10 7 -21 21
-25 31 -4 10 -27 26 -53 37 -25 11 -57 29 -70 39 -13 10 -49 21 -83 25 -33 4
-90 16 -128 27 -67 20 -273 34 -318 23z"/>
<path d="M13670 7090 c0 -5 4 -10 9 -10 6 0 13 5 16 10 3 6 -1 10 -9 10 -9 0
-16 -4 -16 -10z"/>
<path d="M14140 7017 c-104 -39 -113 -51 -131 -171 -11 -74 -11 -79 10 -99
l21 -22 48 27 c99 55 180 56 251 3 73 -53 89 -121 50 -209 -19 -44 -19 -49 -5
-72 10 -15 26 -24 41 -24 32 0 163 36 179 49 6 5 35 13 63 17 43 5 60 2 110
-20 32 -15 68 -37 81 -48 35 -34 72 -103 72 -137 0 -51 -43 -133 -89 -169 -39
-31 -51 -55 -33 -66 17 -11 148 15 204 41 71 32 103 67 122 136 29 103 29 156
1 236 -35 104 -88 156 -225 222 -56 26 -194 52 -239 44 -38 -7 -51 4 -51 48 0
15 -14 53 -32 84 -29 52 -38 59 -117 97 -81 38 -92 40 -191 43 -70 2 -117 -1
-140 -10z"/>
<path d="M14464 6336 c-3 -8 -1 -23 5 -35 17 -31 13 -54 -16 -99 -19 -30 -40
-47 -71 -59 -29 -11 -42 -21 -40 -32 9 -47 155 -3 218 65 54 59 55 94 1 128
-22 14 -42 30 -46 36 -9 15 -45 12 -51 -4z"/>
<path d="M9146 13905 c-139 -24 -283 -86 -353 -154 -30 -28 -29 -39 3 -47 34
-9 247 3 332 17 92 16 340 5 487 -21 193 -35 187 -35 202 -14 7 10 13 40 13
67 0 40 -5 54 -28 76 -35 36 -119 67 -216 80 -104 15 -342 12 -440 -4z"/>
<path d="M8857 13523 c-14 -13 -6 -34 29 -86 93 -135 223 -223 353 -237 91
-10 148 1 233 47 79 43 140 109 158 170 24 80 3 87 -170 53 -56 -11 -125 -20
-154 -20 -56 0 -341 51 -389 69 -32 13 -51 14 -60 4z"/>
<path d="M9380 12254 c-53 -48 -52 -70 0 -79 22 -4 61 -18 85 -31 120 -64 367
-110 504 -94 137 16 215 51 299 136 75 76 53 93 -89 69 -218 -37 -613 -28
-716 16 l-43 19 -40 -36z"/>
<path d="M10005 11884 c-70 -15 -183 -18 -240 -4 -75 18 -94 -5 -50 -59 39
-46 124 -74 208 -68 58 4 76 10 124 43 86 59 106 105 45 103 -15 -1 -54 -7
-87 -15z"/>
<path d="M7809 5227 c-18 -12 -44 -38 -57 -57 -20 -29 -23 -44 -20 -93 7 -98
70 -157 167 -157 110 0 181 78 168 186 -5 52 -29 89 -77 122 -46 31 -134 31
-181 -1z"/>
<path d="M7775 4678 c-54 -29 -84 -70 -90 -123 -8 -64 -2 -86 37 -131 59 -67
127 -81 212 -44 63 27 86 66 86 151 0 78 -20 111 -84 140 -45 21 -130 24 -161
7z"/>
<path d="M7735 4121 c-28 -13 -72 -61 -84 -94 -47 -124 62 -255 194 -234 138
23 191 199 89 298 -32 31 -40 34 -107 36 -40 2 -81 -1 -92 -6z"/>
<path d="M7655 3527 c-40 -36 -49 -50 -55 -90 -15 -99 15 -161 95 -198 72 -33
159 -15 215 45 23 25 25 36 25 111 0 79 -2 85 -30 115 -44 46 -77 60 -144 60
-56 0 -62 -2 -106 -43z"/>
</g>
</svg>
